<svg id="Layer_2" data-name="Layer 2" xmlns="http://www.w3.org/2000/svg" viewBox="0 0 671.44 574.13">
      <path d="M105.1,1.73c-18.2,4.9-33.9,21.3-38,39.9C64.3,53.83,0,512.63,0,519.83c0,15.2,5.4,28,16.4,38.8,7.8,7.6,16.4,12.5,25.4,14.4,3.8,.8,77.6,1.1,262.5,1.1,281.2,0,263,.3,275.4-5.7,11.2-5.5,21.2-18.7,24.2-31.8,.6-2.8,16.2-112.6,34.7-244,27.2-194.4,33.4-240.1,32.8-245-2.4-22.5-17.7-40.2-39.7-46.1-8-2.1-127.8-2-136.2,.1-13.1,3.4-27,13-34.4,23.9-1.6,2.3-30.6,58.3-64.6,124.6s-62.1,120.8-62.4,121.3c-.4,.4-11.2-43.1-24-96.5-33.6-140.2-32.4-135.6-37.1-144.6-6.9-13.3-17.4-22.5-31.4-27.4L233.5,.13l-61.5,.1c-50.4,0-62.5,.3-66.9,1.5Z"/>
      <path fill="#fff" d="M231.6,45.13c1.4,1.4,3.5,4.3,4.4,6.5,1,2.2,19.9,79.9,42.1,172.7,22.2,92.9,40.6,168.8,40.9,168.8s40.1-77.1,88.4-171.3c52.9-103.1,89.1-172.5,90.9-174.5,1.7-1.8,4.8-3.7,6.9-4.2,2.3-.7,24.8-.9,60.8-.8l57.2,.3,2.9,3.3c1.6,1.8,2.9,4.2,2.9,5.5,0,3.8-66.2,475.1-67.1,477.4l-.9,2.3h-54.3c-59.5,0-57,.3-60.2-6-.8-1.6-1.5-4.3-1.5-6.1,0-2.8,28.3-204.6,29.5-210.9q.5-2.4-1-.6c-.8,1-26.9,51-58.1,111s-57.4,109.9-58.2,110.8c-1.4,1.7-5.1,1.8-50.9,1.8-31.6,0-50.1-.4-51.3-1-4.9-2.6-6.5-8.4-34.1-121.2-15.1-61.5-27.6-111.8-27.9-111.8s-7.8,51.7-16.7,115c-8.9,63.2-16.7,115.8-17.3,117-1.1,2-1.7,2-55.4,2s-54.4-.1-56.9-2c-5.8-4.6-7.7,11.4,28.4-243.2C93.8,153.83,108.9,50.23,109.7,48.43c3-6.4,1.8-6.3,63.5-6l55.6,.2,2.8,2.5Z"/>
</svg>